<svg viewBox="0 0 1572 474" fill="none" xmlns="http://www.w3.org/2000/svg">
<g filter="url(#filter0_d_3_23)">
<rect width="1523" height="426" transform="translate(49)" fill="#262626"/>
<path d="M369 205.2V189.6H446.958V174H384.592V158.4H369V142.8H384.592V127.2H462.549V142.8H400.183V158.4H462.549V174H478.141V189.6H462.549V205.2H369Z" fill="#A5FFB0"/>
<path d="M509.324 205.2V189.6H493.732V127.2H524.915V189.6H571.69V127.2H602.873V205.2H509.324Z" fill="#A5FFB0"/>
<path d="M634.056 205.2V189.6H618.465V142.8H634.056V127.2H696.423V96H727.606V205.2H634.056ZM649.648 189.6H696.423V142.8H649.648V189.6Z" fill="#A5FFB0"/>
<path d="M758.789 205.2V189.6H743.197V142.8H758.789V127.2H836.746V142.8H852.338V189.6H836.746V205.2H758.789ZM774.38 189.6H821.155V142.8H774.38V189.6Z" fill="#A5FFB0"/>
<path d="M899.113 142.8V111.6H930.296V142.8H899.113ZM899.113 189.6V158.4H930.296V189.6H899.113Z" fill="#A5FFB0"/>
<path d="M384.592 330V314.4H369V267.6H384.592V252H462.549V267.6H478.141V314.4H462.549V330H384.592ZM400.183 314.4H446.958V267.6H400.183V314.4Z" fill="#30E846"/>
<path d="M540.507 330V314.4H524.915V298.8H509.324V252H540.507V298.8H571.69V252H602.873V298.8H587.282V314.4H571.69V330H540.507Z" fill="#30E846"/>
<path d="M634.056 330V314.4H618.465V267.6H634.056V252H712.014V267.6H727.606V298.8H649.648V314.4H712.014V330H634.056ZM649.648 283.2H696.423V267.6H649.648V283.2Z" fill="#30E846"/>
<path d="M789.972 267.6H805.563V283.2H789.972V330H758.789V252H789.972V267.6ZM852.338 252V267.6H805.563V252H852.338Z" fill="#30E846"/>
<path d="M883.521 330V314.4H867.93V267.6H883.521V252H977.07V267.6H899.113V314.4H977.07V330H883.521Z" fill="#30E846"/>
<path d="M1008.25 330V314.4H1039.44V236.4H1023.85V220.8H1070.62V314.4H1101.8V330H1008.25Z" fill="#30E846"/>
<path d="M1132.99 330V314.4H1117.39V267.6H1132.99V252H1210.94V267.6H1226.54V314.4H1210.94V330H1132.99ZM1148.58 314.4H1195.35V267.6H1148.58V314.4Z" fill="#30E846"/>
<path d="M1257.72 330V314.4H1242.13V267.6H1257.72V252H1351.27V267.6H1273.31V314.4H1351.27V330H1257.72Z" fill="#30E846"/>
<path d="M1366.86 330V220.8H1398.04V283.2H1429.23V267.6H1444.82V252H1476V267.6H1460.41V283.2H1444.82V298.8H1460.41V314.4H1476V330H1444.82V314.4H1429.23V298.8H1398.04V330H1366.86Z" fill="#30E846"/>
<path d="M177 136H241V200H177V136Z" fill="#30E846"/>
<path d="M217 120H259.667V136H217V120Z" fill="#30E846"/>
<path d="M217 200H259.667V216H217V200Z" fill="#30E846"/>
<path d="M158.333 120H201V136H158.333V120Z" fill="#30E846"/>
<path d="M158.333 200H201V216H158.333V200Z" fill="#30E846"/>
<path d="M273 176L241 176V160L273 160V176Z" fill="#30E846"/>
<path d="M177 176L145 176L145 160L177 160V176Z" fill="#30E846"/>
</g>
<defs>
<filter id="filter0_d_3_23" x="0" y="0" width="1572" height="474" filterUnits="userSpaceOnUse" color-interpolation-filters="sRGB">
<feFlood flood-opacity="0" result="BackgroundImageFix"/>
<feColorMatrix in="SourceAlpha" type="matrix" values="0 0 0 0 0 0 0 0 0 0 0 0 0 0 0 0 0 0 127 0" result="hardAlpha"/>
<feOffset dx="-49" dy="48"/>
<feComposite in2="hardAlpha" operator="out"/>
<feColorMatrix type="matrix" values="0 0 0 0 0.188235 0 0 0 0 0.909804 0 0 0 0 0.27451 0 0 0 1 0"/>
<feBlend mode="normal" in2="BackgroundImageFix" result="effect1_dropShadow_3_23"/>
<feBlend mode="normal" in="SourceGraphic" in2="effect1_dropShadow_3_23" result="shape"/>
</filter>
</defs>
</svg>
